<svg width="40" height="40" viewBox="0 0 40 40" fill="none" xmlns="http://www.w3.org/2000/svg">
  <!-- Bunny head -->
  <ellipse cx="20" cy="22" rx="12" ry="10" fill="#FFE6F2"/>
  
  <!-- Ears -->
  <ellipse cx="14" cy="8" rx="3" ry="8" fill="#FFE6F2"/>
  <ellipse cx="26" cy="8" rx="3" ry="8" fill="#FFE6F2"/>
  
  <!-- Inner ears -->
  <ellipse cx="14" cy="8" rx="1.5" ry="6" fill="#FFB6C1"/>
  <ellipse cx="26" cy="8" rx="1.5" ry="6" fill="#FFB6C1"/>
  
  <!-- Eyes -->
  <circle cx="16" cy="18" r="1.5" fill="#000000"/>
  <circle cx="24" cy="18" r="1.5" fill="#000000"/>
  
  <!-- Eye highlights -->
  <circle cx="16.5" cy="17.5" r="0.5" fill="#FFFFFF"/>
  <circle cx="24.5" cy="17.5" r="0.5" fill="#FFFFFF"/>
  
  <!-- Nose -->
  <circle cx="20" cy="22" r="1" fill="#FF69B4"/>
  
  <!-- Mouth -->
  <path d="M18 25C18 25 19 26 20 26C21 26 22 25 22 25" stroke="#000000" stroke-width="1" stroke-linecap="round"/>
  
  <!-- Whiskers -->
  <line x1="16" y1="22" x2="12" y2="20" stroke="#000000" stroke-width="0.5"/>
  <line x1="16" y1="23" x2="12" y2="23" stroke="#000000" stroke-width="0.5"/>
  <line x1="16" y1="24" x2="12" y2="26" stroke="#000000" stroke-width="0.5"/>
  <line x1="24" y1="22" x2="28" y2="20" stroke="#000000" stroke-width="0.5"/>
  <line x1="24" y1="23" x2="28" y2="23" stroke="#000000" stroke-width="0.5"/>
  <line x1="24" y1="24" x2="28" y2="26" stroke="#000000" stroke-width="0.5"/>
</svg> 